{
.appVersion = "3058";
.formatVersion = 3;
DisplayStrings = (
"/numbersign_backslash_parenleft.liga",
"{",
"["
);
classes = (
{
code = "parenleft parenright quotedbl semicolon bar";
name = Scheme.Delimiter;
}
);
date = "2021-06-11 15:09:22 +0000";
familyName = "Shinkai Mono";
featurePrefixes = (
{
automatic = 1;
code = "languagesystem DFLT dflt;
";
name = Languagesystems;
}
);
features = (
{
automatic = 1;
code = "feature calt;
";
tag = aalt;
},
{
automatic = 1;
code = "lookupflag IgnoreMarks;
sub equal equal equal by equal_equal_equal.liga;
sub numbersign backslash parenleft by numbersign_backslash_parenleft.liga;
sub period period period by period_period_period.liga;
sub semicolon semicolon semicolon by semicolon_semicolon_semicolon.liga;
sub H h by H_h.liga;
sub bar numbersign by bar_numbersign.liga;
sub comma at by comma_at.liga;
sub equal equal by equal_equal.liga;
sub equal greater by equal_greater.liga;
sub greater equal by greater_equal.liga;
sub hyphen greater by hyphen_greater.liga;
sub less equal by less_equal.liga;
sub less hyphen by less_hyphen.liga;
sub numbersign backslash by numbersign_backslash.liga;
sub numbersign bar by numbersign_bar.liga;
sub numbersign parenleft by numbersign_parenleft.liga;
sub numbersign semicolon by numbersign_semicolon.liga;
sub period period by period_period.liga;
sub quotesingle parenleft by quotesingle_parenleft.liga;
sub semicolon semicolon by semicolon_semicolon.liga;
";
tag = liga;
},
{
code = "
 sub @Scheme.Delimiter a' @Scheme.Delimiter by A;";
tag = calt;
},
{
code = "";
tag = case;
}
);
fontMaster = (
{
id = m01;
metricValues = (
{
over = 16;
pos = 800;
},
{
over = 16;
pos = 700;
},
{
over = 16;
pos = 500;
},
{
over = -16;
},
{
over = -16;
pos = -200;
}
);
name = Regular;
}
);
glyphs = (
{
category = Letter;
glyphname = A;
lastChange = "2021-06-15 15:52:22 +0000";
layers = (
{
layerId = m01;
shapes = (
{
closed = 1;
nodes = (
(312,708,l),
(458,0,l),
(382,0,l),
(250,623,l),
(112,0,l),
(42,0,l),
(188,708,l)
);
},
{
closed = 1;
nodes = (
(160,299,l),
(339,299,l),
(339,226,l),
(160,226,l)
);
},
{
closed = 1;
nodes = (
(142,0,l),
(40,0,l),
(40,80,l),
(142,80,l)
);
},
{
closed = 1;
nodes = (
(460,0,l),
(356,0,l),
(356,80,l),
(460,80,l)
);
}
);
width = 500;
}
);
subCategory = Letter;
unicode = 65;
},
{
category = Letter;
glyphname = B;
lastChange = "2021-06-15 15:52:47 +0000";
layers = (
{
layerId = m01;
shapes = (
{
closed = 1;
nodes = (
(172,700,l),
(172,0,l),
(92,0,l),
(92,700,l)
);
},
{
closed = 1;
nodes = (
(360,700,o),
(427,626,o),
(428,512,cs),
(429,391,o),
(338,321,o),
(226,321,cs),
(133,321,l),
(133,391,l),
(221,391,ls),
(284,391,o),
(354,419,o),
(354,512,cs),
(354,576,o),
(302,626,o),
(209,626,cs),
(65,626,l),
(65,700,l),
(209,700,ls)
);
},
{
closed = 1;
nodes = (
(65,0,l),
(65,77,l),
(214,77,ls),
(313,77,o),
(380,128,o),
(380,188,cs),
(380,295,o),
(301,321,o),
(221,321,cs),
(133,321,l),
(133,391,l),
(226,391,ls),
(338,391,o),
(456,335,o),
(456,188,cs),
(456,78,o),
(355,0,o),
(214,0,cs)
);
}
);
width = 500;
}
);
subCategory = Letter;
unicode = 66;
},
{
category = Letter;
glyphname = C;
lastChange = "2021-06-15 15:35:14 +0000";
layers = (
{
layerId = m01;
shapes = (
{
closed = 1;
nodes = (
(359,477,l),
(356,565,o),
(322,624,o),
(250,624,cs),
(182,624,o),
(137,530,o),
(137,385,cs),
(137,172,o),
(163,77,o),
(243,76,cs),
(313,75,o),
(354,121,o),
(357,214,c),
(447,211,l),
(444,118,o),
(403,1,o),
(243,-4,cs),
(75,-9,o),
(57,212,o),
(57,385,cs),
(57,569,o),
(126,704,o),
(250,704,cs),
(412,704,o),
(447,566,o),
(449,480,c)
);
},
{
closed = 1;
nodes = (
(449,646,l),
(449,480,l),
(383,646,l)
);
},
{
closed = 1;
nodes = (
(447,212,l),
(447,46,l),
(381,46,l)
);
}
);
width = 501;
}
);
subCategory = Letter;
unicode = 67;
},
{
category = Letter;
glyphname = D;
lastChange = "2021-06-15 11:05:23 +0000";
layers = (
{
layerId = m01;
shapes = (
{
closed = 1;
nodes = (
(177,679,l),
(177,20,l),
(97,20,l),
(97,679,l)
);
},
{
closed = 1;
nodes = (
(72,0,l),
(72,80,l),
(223,80,ls),
(312,80,o),
(380,187,o),
(380,350,cs),
(380,551,o),
(293,620,o),
(223,620,cs),
(72,620,l),
(72,700,l),
(223,700,ls),
(325,700,o),
(460,591,o),
(460,350,cs),
(460,137,o),
(354,0,o),
(223,0,cs)
);
}
);
width = 500;
}
);
subCategory = Letter;
unicode = 68;
},
{
category = Letter;
glyphname = E;
lastChange = "2021-06-15 11:12:39 +0000";
layers = (
{
layerId = m01;
shapes = (
{
closed = 1;
nodes = (
(168,700,l),
(168,0,l),
(88,0,l),
(88,700,l)
);
},
{
closed = 1;
nodes = (
(442,0,l),
(67,1,l),
(66,81,l),
(442,80,l)
);
},
{
closed = 1;
nodes = (
(373,315,l),
(145,316,l),
(145,396,l),
(373,395,l)
);
},
{
closed = 1;
nodes = (
(442,621,l),
(68,622,l),
(67,702,l),
(442,701,l)
);
},
{
closed = 1;
nodes = (
(442,0,l),
(358,0,l),
(359,146,l),
(442,146,l)
);
},
{
closed = 1;
nodes = (
(441,555,l),
(357,555,l),
(359,701,l),
(442,701,l)
);
}
);
width = 500;
}
);
subCategory = Letter;
unicode = 69;
},
{
category = Letter;
glyphname = F;
lastChange = "2021-06-15 15:40:52 +0000";
layers = (
{
layerId = m01;
shapes = (
{
closed = 1;
nodes = (
(185,700,l),
(185,0,l),
(105,0,l),
(105,700,l)
);
},
{
closed = 1;
nodes = (
(205,0,l),
(84,1,l),
(83,81,l),
(205,80,l)
);
},
{
closed = 1;
nodes = (
(390,315,l),
(162,316,l),
(162,396,l),
(390,395,l)
);
},
{
closed = 1;
nodes = (
(459,621,l),
(85,622,l),
(84,702,l),
(459,701,l)
);
},
{
closed = 1;
nodes = (
(458,555,l),
(374,555,l),
(376,701,l),
(459,701,l)
);
}
);
width = 500;
}
);
subCategory = Letter;
unicode = 70;
},
{
category = Letter;
glyphname = G;
lastChange = "2021-06-15 15:40:27 +0000";
layers = (
{
layerId = m01;
shapes = (
{
closed = 1;
nodes = (
(433,-3,l),
(431,335,l),
(350,334,l),
(352,-3,l)
);
},
{
closed = 1;
nodes = (
(430,569,o),
(394,708,o),
(235,708,cs),
(83,708,o),
(49,578,o),
(54,386,cs),
(59,212,o),
(31,-8,o),
(235,-6,cs),
(367,-5,o),
(428,224,o),
(431,278,c),
(347,281,l),
(344,193,o),
(299,73,o),
(235,74,cs),
(142,75,o),
(132,172,o),
(132,386,cs),
(132,539,o),
(162,628,o),
(235,628,cs),
(300,628,o),
(349,567,o),
(352,479,c),
(433,482,l)
);
},
{
closed = 1;
nodes = (
(299,280,l),
(452,283,l),
(452,357,l),
(299,357,l)
);
},
{
closed = 1;
nodes = (
(433,482,l),
(433,641,l),
(372,641,l)
);
}
);
width = 500;
}
);
subCategory = Letter;
unicode = 71;
},
{
category = Letter;
glyphname = H;
lastChange = "2021-06-15 15:41:55 +0000";
layers = (
{
layerId = m01;
shapes = (
{
closed = 1;
nodes = (
(137,700,l),
(137,0,l),
(65,0,l),
(65,700,l)
);
},
{
closed = 1;
nodes = (
(435,700,l),
(435,0,l),
(363,0,l),
(363,700,l)
);
},
{
closed = 1;
nodes = (
(378,315,l),
(116,316,l),
(116,397,l),
(378,396,l)
);
},
{
closed = 1;
nodes = (
(156,0,l),
(45,0,l),
(45,80,l),
(156,80,l)
);
},
{
closed = 1;
nodes = (
(156,620,l),
(45,620,l),
(45,700,l),
(156,700,l)
);
},
{
closed = 1;
nodes = (
(455,620,l),
(344,620,l),
(344,700,l),
(455,700,l)
);
},
{
closed = 1;
nodes = (
(455,0,l),
(344,0,l),
(344,80,l),
(455,80,l)
);
}
);
width = 500;
}
);
subCategory = Letter;
unicode = 72;
},
{
category = Letter;
glyphname = I;
lastChange = "2021-06-15 11:18:19 +0000";
layers = (
{
layerId = m01;
shapes = (
{
closed = 1;
nodes = (
(290,700,l),
(290,0,l),
(210,0,l),
(210,700,l)
);
},
{
closed = 1;
nodes = (
(374,620,l),
(126,621,l),
(125,701,l),
(375,700,l)
);
},
{
closed = 1;
nodes = (
(375,-1,l),
(125,0,l),
(126,80,l),
(374,79,l)
);
}
);
width = 500;
}
);
subCategory = Letter;
unicode = 73;
},
{
category = Letter;
glyphname = J;
lastChange = "2021-06-15 11:19:26 +0000";
layers = (
{
layerId = m01;
shapes = (
{
closed = 1;
nodes = (
(433,620,l),
(186,621,l),
(185,701,l),
(433,700,l)
);
},
{
closed = 1;
nodes = (
(115,65,l),
(149,14,o),
(168,-6,o),
(219,-5,cs),
(305,-4,o),
(285,95,o),
(287,294,cs),
(290,653,l),
(377,653,l),
(377,294,ls),
(377,95,o),
(392,-95,o),
(219,-95,cs),
(119,-95,o),
(73,-45,o),
(43,15,c)
);
}
);
width = 500;
}
);
subCategory = Letter;
unicode = 74;
},
{
category = Letter;
glyphname = K;
lastChange = "2021-06-15 15:47:44 +0000";
layers = (
{
layerId = m01;
shapes = (
{
closed = 1;
nodes = (
(180,700,l),
(180,0,l),
(103,0,l),
(103,700,l)
);
},
{
closed = 1;
nodes = (
(443,645,l),
(171,220,l),
(171,355,l),
(353,645,l)
);
},
{
closed = 1;
nodes = (
(216,358,l),
(270,436,l),
(446,68,l),
(359,68,l)
);
},
{
closed = 1;
nodes = (
(200,620,l),
(83,620,l),
(83,700,l),
(200,700,l)
);
},
{
closed = 1;
nodes = (
(200,0,l),
(83,0,l),
(83,80,l),
(200,80,l)
);
},
{
closed = 1;
nodes = (
(449,620,l),
(323,620,l),
(323,700,l),
(449,700,l)
);
},
{
closed = 1;
nodes = (
(462,0,l),
(339,0,l),
(339,80,l),
(462,80,l)
);
}
);
width = 500;
}
);
subCategory = Letter;
unicode = 75;
},
{
category = Letter;
glyphname = L;
lastChange = "2021-06-15 11:25:30 +0000";
layers = (
{
layerId = m01;
shapes = (
{
closed = 1;
nodes = (
(199,700,l),
(194,0,l),
(114,0,l),
(119,700,l)
);
},
{
closed = 1;
nodes = (
(451,-1,l),
(96,1,l),
(95,81,l),
(450,79,l)
);
},
{
closed = 1;
nodes = (
(226,620,l),
(95,620,l),
(95,700,l),
(226,700,l)
);
},
{
closed = 1;
nodes = (
(451,120,l),
(451,0,l),
(371,0,l),
(371,120,l)
);
}
);
width = 500;
}
);
subCategory = Letter;
unicode = 76;
},
{
category = Letter;
glyphname = M;
lastChange = "2021-06-15 15:47:59 +0000";
layers = (
{
layerId = m01;
shapes = (
{
closed = 1;
nodes = (
(283,185,l),
(216,185,l),
(65,699,l),
(148,699,l)
);
},
{
closed = 1;
nodes = (
(135,699,l),
(125,-1,l),
(48,-1,l),
(61,699,l)
);
},
{
closed = 1;
nodes = (
(138,619,l),
(43,619,l),
(43,699,l),
(139,699,l)
);
},
{
closed = 1;
nodes = (
(437,699,l),
(288,185,l),
(223,185,l),
(357,699,l)
);
},
{
closed = 1;
nodes = (
(453,-1,l),
(376,-1,l),
(367,699,l),
(441,699,l)
);
},
{
closed = 1;
nodes = (
(138,619,l),
(43,619,l),
(43,699,l),
(139,699,l)
);
},
{
closed = 1;
nodes = (
(459,699,l),
(459,619,l),
(364,619,l),
(363,699,l)
);
},
{
closed = 1;
nodes = (
(150,0,l),
(30,0,l),
(30,80,l),
(150,80,l)
);
},
{
closed = 1;
nodes = (
(470,0,l),
(352,0,l),
(352,80,l),
(470,80,l)
);
}
);
width = 500;
}
);
subCategory = Letter;
unicode = 77;
},
{
category = Letter;
glyphname = N;
lastChange = "2021-06-15 15:48:04 +0000";
layers = (
{
layerId = m01;
shapes = (
{
closed = 1;
nodes = (
(384,298,l),
(384,151,l),
(83,699,l),
(164,699,l)
);
},
{
closed = 1;
nodes = (
(154,699,l),
(157,-1,l),
(80,-1,l),
(80,699,l)
);
},
{
closed = 1;
nodes = (
(157,619,l),
(62,619,l),
(62,699,l),
(158,699,l)
);
},
{
closed = 1;
nodes = (
(434,-1,l),
(354,-1,l),
(357,700,l),
(434,700,l)
);
},
{
closed = 1;
nodes = (
(182,-1,l),
(62,-1,l),
(62,79,l),
(182,79,l)
);
},
{
closed = 1;
nodes = (
(452,620,l),
(338,620,l),
(338,700,l),
(452,700,l)
);
},
{
closed = 1;
nodes = (
(452,0,l),
(338,0,l),
(338,80,l),
(452,80,l)
);
}
);
width = 500;
}
);
subCategory = Letter;
unicode = 78;
},
{
category = Letter;
glyphname = O;
lastChange = "2021-06-15 15:53:52 +0000";
layers = (
{
layerId = m01;
shapes = (
{
closed = 1;
nodes = (
(245,627,l),
(164,627,o),
(117,582,o),
(117,350,cs),
(117,137,o),
(164,75,o),
(245,74,c),
(245,-4,l),
(66,-9,o),
(38,150,o),
(38,350,cs),
(38,582,o),
(86,704,o),
(245,704,c)
);
},
{
closed = 1;
nodes = (
(404,704,o),
(452,582,o),
(452,350,cs),
(452,150,o),
(424,-9,o),
(245,-4,c),
(245,74,l),
(326,75,o),
(374,137,o),
(374,350,cs),
(374,582,o),
(326,627,o),
(245,627,c),
(245,704,l)
);
}
);
width = 500;
}
);
subCategory = Letter;
unicode = 79;
},
{
category = Letter;
glyphname = P;
lastChange = "2021-06-15 11:35:37 +0000";
layers = (
{
layerId = m01;
shapes = (
{
closed = 1;
nodes = (
(175,700,l),
(175,0,l),
(95,0,l),
(95,700,l)
);
},
{
closed = 1;
nodes = (
(361,700,o),
(430,626,o),
(431,512,cs),
(432,391,o),
(341,320,o),
(229,320,cs),
(136,320,l),
(136,392,l),
(224,392,ls),
(287,392,o),
(351,419,o),
(351,512,cs),
(351,576,o),
(308,622,o),
(212,622,cs),
(74,622,l),
(74,700,l),
(212,700,ls)
);
},
{
closed = 1;
nodes = (
(192,0,l),
(78,0,l),
(78,80,l),
(192,80,l)
);
}
);
width = 466;
}
);
subCategory = Letter;
unicode = 80;
},
{
category = Letter;
glyphname = Q;
lastChange = "2021-06-15 15:48:30 +0000";
layers = (
{
layerId = m01;
shapes = (
{
closed = 1;
nodes = (
(255,109,l),
(227,32,o),
(196,7,o),
(113,-30,c),
(135,-92,l),
(178,-68,o),
(243,-29,o),
(278,1,cs),
(322,39,o),
(325,61,o),
(336,102,c)
);
},
{
closed = 1;
nodes = (
(96,700,o),
(48,578,o),
(48,383,cs),
(48,216,o),
(76,38,o),
(255,43,c),
(255,122,l),
(174,123,o),
(128,205,o),
(128,383,cs),
(128,578,o),
(174,622,o),
(255,622,c),
(255,700,l)
);
},
{
closed = 1;
nodes = (
(255,622,l),
(336,622,o),
(381,578,o),
(381,383,cs),
(381,205,o),
(336,123,o),
(255,122,c),
(255,43,l),
(434,38,o),
(462,216,o),
(462,383,cs),
(462,578,o),
(414,700,o),
(255,700,c)
);
},
{
closed = 1;
nodes = (
(136,-96,l),
(440,-96,l),
(440,-28,l),
(113,-30,l)
);
},
{
closed = 1;
nodes = (
(444,18,l),
(361,18,l),
(359,-95,l),
(442,-96,l)
);
}
);
width = 500;
}
);
subCategory = Letter;
unicode = 81;
},
{
category = Letter;
glyphname = R;
lastChange = "2021-06-15 14:03:38 +0000";
layers = (
{
layerId = m01;
shapes = (
{
closed = 1;
nodes = (
(305,343,l),
(431,68,l),
(354,68,l),
(228,343,l)
);
},
{
closed = 1;
nodes = (
(164,708,l),
(164,-7,l),
(93,-7,l),
(93,708,l)
);
},
{
closed = 1;
nodes = (
(352,708,o),
(435,636,o),
(436,521,cs),
(437,411,o),
(375,314,o),
(227,314,cs),
(134,314,l),
(134,379,l),
(222,379,ls),
(310,379,o),
(365,439,o),
(365,521,cs),
(365,587,o),
(309,636,o),
(210,636,cs),
(69,636,l),
(69,708,l),
(210,708,ls)
);
},
{
closed = 1;
nodes = (
(187,-10,l),
(73,-10,l),
(73,72,l),
(187,72,l)
);
},
{
closed = 1;
nodes = (
(447,-7,l),
(331,-7,l),
(331,75,l),
(447,75,l)
);
}
);
width = 500;
}
);
subCategory = Letter;
unicode = 82;
},
{
category = Letter;
glyphname = S;
lastChange = "2021-06-15 11:41:00 +0000";
layers = (
{
layerId = m01;
shapes = (
{
closed = 1;
nodes = (
(372,-11,o),
(445,65,o),
(445,193,cs),
(445,271,o),
(417,343,o),
(249,397,cs),
(181,419,o),
(142,462,o),
(141,512,cs),
(141,592,o),
(176,630,o),
(250,630,cs),
(319,630,o),
(369,574,o),
(369,505,c),
(444,505,l),
(444,613,o),
(367,700,o),
(250,700,cs),
(128,700,o),
(65,631,o),
(65,512,cs),
(66,426,o),
(128,358,o),
(236,318,cs),
(295,296,o),
(369,247,o),
(369,193,cs),
(369,104,o),
(324,59,o),
(250,59,cs),
(181,59,o),
(131,127,o),
(131,200,c),
(56,200,l),
(56,88,o),
(133,-11,o),
(250,-11,cs)
);
},
{
closed = 1;
nodes = (
(444,505,l),
(444,657,l),
(378,657,l)
);
},
{
closed = 1;
nodes = (
(56,196,l),
(56,44,l),
(122,44,l)
);
}
);
width = 500;
}
);
subCategory = Letter;
unicode = 83;
},
{
category = Letter;
glyphname = T;
lastChange = "2021-06-15 11:44:33 +0000";
layers = (
{
layerId = m01;
shapes = (
{
closed = 1;
nodes = (
(52,704,l),
(446,704,l),
(443,624,l),
(54,624,l)
);
},
{
closed = 1;
nodes = (
(290,704,l),
(290,4,l),
(210,4,l),
(210,704,l)
);
},
{
closed = 1;
nodes = (
(118,704,l),
(118,596,l),
(38,596,l),
(38,704,l)
);
},
{
closed = 1;
nodes = (
(317,-3,l),
(183,-3,l),
(183,77,l),
(317,77,l)
);
},
{
closed = 1;
nodes = (
(462,704,l),
(462,596,l),
(382,596,l),
(382,704,l)
);
}
);
width = 500;
}
);
subCategory = Letter;
unicode = 84;
},
{
category = Letter;
glyphname = U;
lastChange = "2021-06-15 11:46:55 +0000";
layers = (
{
layerId = m01;
shapes = (
{
closed = 1;
nodes = (
(153,705,l),
(153,350,ls),
(153,102,o),
(187,87,o),
(250,86,c),
(250,-4,l),
(91,-9,o),
(63,115,o),
(63,350,cs),
(63,704,l)
);
},
{
closed = 1;
nodes = (
(437,350,ls),
(437,115,o),
(409,-9,o),
(250,-4,c),
(250,86,l),
(313,87,o),
(347,102,o),
(347,350,cs),
(347,705,l),
(437,704,l)
);
},
{
closed = 1;
nodes = (
(174,625,l),
(40,625,l),
(40,705,l),
(174,705,l)
);
},
{
closed = 1;
nodes = (
(460,625,l),
(326,625,l),
(326,705,l),
(460,705,l)
);
}
);
width = 500;
}
);
subCategory = Letter;
unicode = 85;
},
{
category = Letter;
glyphname = V;
lastChange = "2021-06-15 11:48:39 +0000";
layers = (
{
layerId = m01;
shapes = (
{
closed = 1;
nodes = (
(288,-12,l),
(204,-12,l),
(52,660,l),
(135,660,l)
);
},
{
closed = 1;
nodes = (
(451,659,l),
(296,-12,l),
(212,-12,l),
(366,659,l)
);
},
{
closed = 1;
nodes = (
(168,620,l),
(34,620,l),
(34,700,l),
(168,700,l)
);
},
{
closed = 1;
nodes = (
(466,620,l),
(332,620,l),
(332,700,l),
(466,700,l)
);
}
);
width = 500;
}
);
subCategory = Letter;
unicode = 86;
},
{
category = Letter;
glyphname = W;
lastChange = "2021-06-15 11:50:09 +0000";
layers = (
{
layerId = m01;
shapes = (
{
closed = 1;
nodes = (
(110,0,l),
(213,512,l),
(274,512,l),
(187,-1,l)
);
},
{
closed = 1;
nodes = (
(57,636,l),
(137,636,l),
(174,-1,l),
(100,-1,l)
);
},
{
closed = 1;
nodes = (
(159,624,l),
(34,624,l),
(34,704,l),
(159,704,l)
);
},
{
closed = 1;
nodes = (
(217,512,l),
(278,512,l),
(381,0,l),
(304,-1,l)
);
},
{
closed = 1;
nodes = (
(317,-1,l),
(354,636,l),
(434,636,l),
(391,-1,l)
);
},
{
closed = 1;
nodes = (
(457,704,l),
(457,624,l),
(332,624,l),
(332,704,l)
);
}
);
width = 500;
}
);
subCategory = Letter;
unicode = 87;
},
{
category = Letter;
glyphname = X;
lastChange = "2021-06-15 11:50:40 +0000";
layers = (
{
layerId = m01;
shapes = (
{
closed = 1;
nodes = (
(138,621,l),
(43,621,l),
(43,701,l),
(139,701,l)
);
},
{
closed = 1;
nodes = (
(451,-5,l),
(361,-5,l),
(56,701,l),
(139,701,l)
);
},
{
closed = 1;
nodes = (
(43,-5,l),
(43,75,l),
(138,75,l),
(139,-5,l)
);
},
{
closed = 1;
nodes = (
(56,-5,l),
(361,701,l),
(451,701,l),
(139,-5,l)
);
},
{
closed = 1;
nodes = (
(138,621,l),
(43,621,l),
(43,701,l),
(139,701,l)
);
},
{
closed = 1;
nodes = (
(457,701,l),
(457,621,l),
(362,621,l),
(361,701,l)
);
},
{
closed = 1;
nodes = (
(362,75,l),
(457,75,l),
(457,-5,l),
(361,-5,l)
);
}
);
width = 500;
}
);
subCategory = Letter;
unicode = 88;
},
{
category = Letter;
glyphname = Y;
lastChange = "2021-06-15 11:52:43 +0000";
layers = (
{
layerId = m01;
shapes = (
{
closed = 1;
nodes = (
(292,286,l),
(455,700,l),
(368,700,l),
(250,404,l),
(132,700,l),
(45,700,l),
(208,286,l),
(208,0,l),
(289,0,l)
);
},
{
closed = 1;
nodes = (
(30,700,l),
(31,620,l),
(176,620,l),
(177,700,l)
);
},
{
closed = 1;
nodes = (
(188,0,l),
(312,0,l),
(312,80,l),
(188,80,l)
);
},
{
closed = 1;
nodes = (
(324,620,l),
(469,620,l),
(470,700,l),
(323,700,l)
);
}
);
width = 500;
}
);
subCategory = Letter;
unicode = 89;
},
{
category = Letter;
glyphname = Z;
lastChange = "2021-06-15 06:36:15 +0000";
layers = (
{
layerId = m01;
shapes = (
{
closed = 1;
nodes = (
(433,76,l),
(158,77,l),
(436,624,l),
(436,700,l),
(64,700,l),
(67,624,l),
(342,624,l),
(64,76,l),
(64,0,l),
(436,0,l)
);
},
{
closed = 1;
nodes = (
(447,93,l),
(362,93,l),
(354,0,l),
(437,0,l)
);
},
{
closed = 1;
nodes = (
(53,607,l),
(138,607,l),
(146,700,l),
(63,700,l)
);
}
);
width = 500;
}
);
subCategory = Letter;
unicode = 90;
},
{
glyphname = H_h.liga;
lastChange = "2021-06-15 12:42:42 +0000";
layers = (
{
layerId = m01;
shapes = (
{
closed = 1;
nodes = (
(156,700,l),
(156,0,l),
(76,0,l),
(76,700,l)
);
},
{
closed = 1;
nodes = (
(424,700,l),
(424,0,l),
(344,0,l),
(344,700,l)
);
},
{
closed = 1;
nodes = (
(367,315,l),
(127,316,l),
(127,397,l),
(367,396,l)
);
},
{
closed = 1;
nodes = (
(176,0,l),
(56,0,l),
(56,80,l),
(176,80,l)
);
},
{
closed = 1;
nodes = (
(176,620,l),
(56,620,l),
(56,700,l),
(176,700,l)
);
},
{
closed = 1;
nodes = (
(615,621,l),
(324,620,l),
(324,700,l),
(615,701,l)
);
},
{
closed = 1;
nodes = (
(444,0,l),
(324,0,l),
(324,80,l),
(444,80,l)
);
},
{
closed = 1;
nodes = (
(902,2,l),
(829,2,l),
(831,240,l),
(904,240,l)
);
},
{
closed = 1;
nodes = (
(831,238,l),
(831,375,o),
(800,431,o),
(723,431,cs),
(647,431,o),
(617,358,o),
(617,238,c),
(567,237,l),
(567,401,o),
(607,500,o),
(720,500,cs),
(852,500,o),
(904,421,o),
(904,237,c)
);
},
{
closed = 1;
nodes = (
(539,-2,l),
(539,701,l),
(617,701,l),
(617,-2,l)
);
},
{
closed = 1;
nodes = (
(523,-2,l),
(526,78,l),
(615,78,l),
(615,-2,l)
);
},
{
closed = 1;
nodes = (
(829,78,l),
(918,78,l),
(921,-2,l),
(829,-2,l)
);
}
);
width = 1000;
}
);
},
{
category = Letter;
glyphname = a;
lastChange = "2021-06-15 13:52:26 +0000";
layers = (
{
layerId = m01;
shapes = (
{
closed = 1;
nodes = (
(374,446,l),
(367,48,l),
(369,-1,l),
(459,-1,l),
(456,79,l),
(443.431,79,l),
(449.569,422,l),
(465,422,l),
(469,502,l),
(379,502,l)
);
},
{
closed = 1;
nodes = (
(180,62,o),
(134,134,o),
(134,250,cs),
(134,368,o),
(181,437,o),
(250,437,cs),
(320,437,o),
(371,368,o),
(371,249,cs),
(371,134,o),
(320,62,o),
(250,62,cs)
);
},
{
closed = 1;
nodes = (
(378,-3,o),
(414,98,o),
(414,249,cs),
(414,416,o),
(374,504,o),
(250,504,cs),
(126,504,o),
(56,416,o),
(56,250,cs),
(56,98,o),
(122,-3,o),
(250,-3,cs)
);
}
);
width = 500;
}
);
subCategory = Lowercase;
unicode = 97;
},
{
category = Letter;
glyphname = b;
lastChange = "2021-06-15 15:44:35 +0000";
layers = (
{
layerId = m01;
shapes = (
{
closed = 1;
nodes = (
(149,49.911,l),
(175.964,15.996,o),
(199,-3,o),
(255,-3,cs),
(391,-3,o),
(449,100,o),
(449,249,cs),
(449,393,o),
(391,500,o),
(255,500,cs),
(207,500,o),
(176,483,o),
(149,449,c),
(149,625,l),
(146,705,l),
(57,705,l),
(60,625,l),
(71,625,l),
(71,79,l),
(58,79,l),
(55,-1,l),
(146,-1,l)
);
},
{
closed = 1;
nodes = (
(150,364,o),
(188,427,o),
(255,427,cs),
(337,427,o),
(372,345,o),
(372,249,cs),
(372,136,o),
(333,67,o),
(255,67,cs),
(185,67,o),
(150,134,o),
(150,250,cs)
);
}
);
width = 500;
}
);
subCategory = Lowercase;
unicode = 98;
},
{
category = Letter;
glyphname = c;
lastChange = "2021-06-15 14:15:42 +0000";
layers = (
{
layerId = m01;
shapes = (
{
closed = 1;
nodes = (
(364,192,l),
(356,105,o),
(320,64,o),
(251,64,cs),
(170,64,o),
(140,124,o),
(140,244,cs),
(140,371,o),
(171,426,o),
(251,426,cs),
(309,426,o),
(344,397,o),
(358,334,c),
(436,334,l),
(418,448,o),
(359,499,o),
(248,499,cs),
(114,499,o),
(60,423,o),
(60,245,cs),
(60,79,o),
(112,-8,o),
(248,-8,cs),
(370,-8,o),
(429,58,o),
(440,192,c)
);
},
{
closed = 1;
nodes = (
(365,457,l),
(436,334,l),
(436,457,l)
);
}
);
width = 500;
}
);
subCategory = Lowercase;
unicode = 99;
},
{
category = Letter;
glyphname = d;
lastChange = "2021-06-15 14:16:12 +0000";
layers = (
{
layerId = m01;
shapes = (
{
closed = 1;
nodes = (
(451,-1,l),
(448,79,l),
(435,79,l),
(435,625,l),
(446,625,l),
(449,705,l),
(359,705,l),
(357,625,l),
(357,453.147,l),
(329.684,486.76,o),
(289.885,504,o),
(235,504,cs),
(111,504,o),
(41,416,o),
(41,249,cs),
(41,98,o),
(107,-3,o),
(235,-3,cs),
(290.512,-3,o),
(330.036,15.996,o),
(357,49.911,c),
(359,-1,l)
);
},
{
closed = 1;
nodes = (
(118,368,o),
(165,431,o),
(235,431,cs),
(304,431,o),
(356,368,o),
(356,250,cs),
(356,134,o),
(305,67,o),
(235,67,cs),
(165,67,o),
(118,134,o),
(118,249,cs)
);
}
);
width = 500;
}
);
subCategory = Lowercase;
unicode = 100;
},
{
category = Letter;
glyphname = e;
lastChange = "2021-06-15 14:18:41 +0000";
layers = (
{
layerId = m01;
shapes = (
{
closed = 1;
nodes = (
(426,194,o),
(440,313,o),
(440,355,cs),
(440,441,o),
(363,499,o),
(258,499,cs),
(126,499,o),
(66,423,o),
(66,245,cs),
(66,79,o),
(118,-8,o),
(258,-8,cs),
(369,-8,o),
(421,44,o),
(441,147,c),
(365,147,l),
(349,90,o),
(319,61,o),
(261,61,cs),
(184.813,61,o),
(149,98,o),
(143,194,c)
);
},
{
closed = 1;
nodes = (
(149,379,o),
(180,428,o),
(261,428,cs),
(314,428,o),
(364,406,o),
(364,355,cs),
(364,295,o),
(294,265,o),
(143,265,c)
);
}
);
width = 500;
}
);
subCategory = Lowercase;
unicode = 101;
},
{
category = Letter;
glyphname = f;
lastChange = "2021-06-15 15:45:41 +0000";
layers = (
{
layerId = m01;
shapes = (
{
closed = 1;
nodes = (
(104,500,l),
(208,500,l),
(208,581,ls),
(208,659,o),
(264,731,o),
(368,735,cs),
(388,736,o),
(411,732,o),
(432,721,c),
(399,658,l),
(391,662,o),
(384,664,o),
(372,664,cs),
(303,663,o),
(286,616,o),
(286,569,cs),
(286,500,l),
(450,500,l),
(450,430,l),
(286,430,l),
(286,-8,l),
(208,-10,l),
(208,430,l),
(104,430,l)
);
},
{
closed = 1;
nodes = (
(96,-51,l),
(119,-101,o),
(149,-133,o),
(175,-133,cs),
(200,-133,o),
(208,-91,o),
(208,-10,cs),
(208,-9,l),
(208,-10,l),
(286,-8,l),
(286,-7,l),
(286,-8,ls),
(286,-149,o),
(244,-209,o),
(175,-209,cs),
(108,-209,o),
(78,-173,o),
(34,-82,c)
);
}
);
width = 500;
}
);
subCategory = Lowercase;
unicode = 102;
},
{
category = Letter;
glyphname = g;
lastChange = "2021-06-15 14:26:41 +0000";
layers = (
{
layerId = m01;
shapes = (
{
closed = 1;
nodes = (
(181,65,o),
(143,157,o),
(143,244,cs),
(143,330,o),
(181,426,o),
(257,426,cs),
(329,426,o),
(350,371,o),
(350,244,cs),
(350,122,o),
(332,65,o),
(257,65,cs)
);
},
{
closed = 1;
nodes = (
(60,112,o),
(121,-4,o),
(254,-4,cs),
(296.937,-4,o),
(327.688,6.845,o),
(349.529,27.77,c),
(345.236,-78.077,o),
(311.242,-131,o),
(233,-131,cs),
(192,-131,o),
(163,-116,o),
(145,-87,c),
(87,-146,l),
(118,-182,o),
(165,-200,o),
(230,-200,cs),
(371.439,-200,o),
(428,-117,o),
(427.997,51,cs),
(428.826,422,l),
(437,422,l),
(441,502,l),
(351,502,l),
(349,465.58,l),
(327.296,487.144,o),
(296.748,499,o),
(254,499,cs),
(122,499,o),
(60,382,o),
(60,245,cs)
);
}
);
width = 500;
}
);
subCategory = Lowercase;
unicode = 103;
},
{
category = Letter;
glyphname = h;
lastChange = "2021-06-15 14:50:41 +0000";
layers = (
{
layerId = m01;
shapes = (
{
closed = 1;
nodes = (
(428,422,o),
(369,500,o),
(242,500,cs),
(197,500,o),
(169.974,484.338,o),
(146,454.83,c),
(146,625,l),
(144,705,l),
(54,705,l),
(57,625,l),
(68,625,l),
(68,79,l),
(55,79,l),
(52,-1,l),
(144,-1,l),
(146,79,l),
(146,238,ls),
(146,358,o),
(174,431,o),
(245,431,cs),
(322,431,o),
(355,375,o),
(355,240,cs),
(355,78,l),
(356,-1,l),
(446,-1,l),
(443,79,l),
(428,79,l),
(428,237,l),
(428,240,ls)
);
}
);
width = 500;
}
);
subCategory = Lowercase;
unicode = 104;
},
{
category = Letter;
glyphname = i;
lastChange = "2021-06-15 15:48:56 +0000";
layers = (
{
layerId = m01;
shapes = (
{
closed = 1;
nodes = (
(78,430,l),
(216,430,l),
(216,201,l),
(294,200,l),
(294,500,l),
(78,500,l)
);
},
{
closed = 1;
nodes = (
(211,572,l),
(298,572,l),
(298,659,l),
(211,659,l)
);
},
{
closed = 1;
nodes = (
(216,201,l),
(215,60,o),
(253,-1,o),
(330,-1,cs),
(410,-1,o),
(441,35,o),
(485,126,c),
(423,157,l),
(400,107,o),
(369,75,o),
(330,75,cs),
(303,75,o),
(294,117,o),
(294,200,c)
);
}
);
width = 500;
}
);
subCategory = Lowercase;
unicode = 105;
},
{
category = Letter;
glyphname = j;
lastChange = "2021-06-15 15:49:10 +0000";
layers = (
{
layerId = m01;
shapes = (
{
closed = 1;
nodes = (
(93,430,l),
(255,430,l),
(255,11,l),
(333,11,l),
(333,500,l),
(94,500,l)
);
},
{
closed = 1;
nodes = (
(245,581,l),
(334,581,l),
(334,668,l),
(245,668,l)
);
},
{
closed = 1;
nodes = (
(255,-71,o),
(246,-113,o),
(219,-113,cs),
(180,-113,o),
(149,-81,o),
(126,-31,c),
(54,-62,l),
(108,-153,o),
(139,-189,o),
(219,-189,cs),
(296,-189,o),
(334,-128,o),
(333,13,c),
(255,12,l)
);
}
);
width = 500;
}
);
subCategory = Lowercase;
unicode = 106;
},
{
category = Letter;
glyphname = k;
lastChange = "2021-06-15 15:43:16 +0000";
layers = (
{
layerId = m01;
shapes = (
{
closed = 1;
nodes = (
(169,217,l),
(216,217,l),
(365,0,l),
(455,0,l),
(283,250,l),
(455,500,l),
(365,500,l),
(216,288,l),
(169,288,l)
);
},
{
closed = 1;
nodes = (
(170,703,l),
(92,703,l),
(92,-1,l),
(170,-1,l)
);
},
{
closed = 1;
nodes = (
(168,79,l),
(79,79,l),
(76,-1,l),
(168,-1,l)
);
},
{
closed = 1;
nodes = (
(78,705,l),
(81,625,l),
(170,625,l),
(170,705,l)
);
}
);
width = 500;
}
);
subCategory = Lowercase;
unicode = 107;
},
{
category = Letter;
glyphname = l;
lastChange = "2021-06-15 15:41:04 +0000";
layers = (
{
layerId = m01;
shapes = (
{
closed = 1;
nodes = (
(186,61,o),
(224,0,o),
(301,0,cs),
(381,0,o),
(412,36,o),
(456,127,c),
(394,158,l),
(371,108,o),
(340,76,o),
(301,76,cs),
(274,76,o),
(265,118,o),
(265,201,cs),
(267,687,l),
(60,687,l),
(60,617,l),
(189,617,l),
(187,202,ls)
);
}
);
width = 500;
}
);
subCategory = Lowercase;
unicode = 108;
},
{
category = Letter;
glyphname = m;
lastChange = "2021-06-15 15:45:06 +0000";
layers = (
{
layerId = m01;
shapes = (
{
closed = 1;
nodes = (
(168,383,o),
(188,433,o),
(207,433,cs),
(228,433,o),
(242,383,o),
(242,322,cs),
(242,231,l),
(307,231,l),
(307,322,ls),
(307,383,o),
(323,433,o),
(343,433,cs),
(361,433,o),
(377,383,o),
(377,322,cs),
(377,-1,l),
(469,-1,l),
(466,79,l),
(455,79,l),
(455,322,ls),
(455,421,o),
(399,500,o),
(343,500,cs),
(316,500,o),
(293,483,o),
(276,455,c),
(260,483,o),
(235,500,o),
(207,500,cs),
(185,500,o),
(157,473,o),
(138,431,c),
(129,454,o),
(107,482,o),
(90,502,c),
(22,451,l),
(34,435,o),
(48,415,o),
(59,394,c),
(75,405,l),
(89,378,o),
(90,355,o),
(90,322,cs),
(91,79,l),
(77,79,l),
(74,-1,l),
(166,-1,l),
(170,0,l),
(168,322,ls)
);
}
);
width = 500;
}
);
subCategory = Lowercase;
unicode = 109;
},
{
category = Letter;
glyphname = n;
lastChange = "2021-06-15 15:49:58 +0000";
layers = (
{
layerId = m01;
shapes = (
{
closed = 1;
nodes = (
(175,79,l),
(175,321,ls),
(175,382,o),
(214,432,o),
(274,432,cs),
(324,432,o),
(363,382,o),
(363,321,cs),
(363,78,l),
(365,-2,l),
(455,-2,l),
(452,78,l),
(441,78,l),
(441,321,ls),
(441,420,o),
(367,500,o),
(274,500,cs),
(217,500,o),
(175,476,o),
(141,437,c),
(139,440,o),
(138,442,o),
(136,442,c),
(125,461,o),
(110,481,o),
(97,496,c),
(29,445,l),
(41,429,o),
(55,409,o),
(66,388,c),
(82,399,l),
(96,372,o),
(97,349,o),
(97,316,cs),
(97,78,l),
(86,78,l),
(84,-2,l),
(173,-2,l)
);
}
);
width = 500;
}
);
subCategory = Lowercase;
unicode = 110;
},
{
category = Letter;
glyphname = o;
lastChange = "2021-06-15 15:40:07 +0000";
layers = (
{
layerId = m01;
shapes = (
{
closed = 1;
nodes = (
(180,63,o),
(127,134,o),
(127,250,cs),
(127,368,o),
(181,436,o),
(250,436,cs),
(320,436,o),
(373,368,o),
(373,249,cs),
(373,134,o),
(320,63,o),
(250,63,cs)
);
},
{
closed = 1;
nodes = (
(378,-3,o),
(449,98,o),
(449,249,cs),
(449,416,o),
(374,504,o),
(250,504,cs),
(126,504,o),
(51,416,o),
(51,250,cs),
(51,98,o),
(122,-3,o),
(250,-3,cs)
);
}
);
width = 500;
}
);
subCategory = Lowercase;
unicode = 111;
},
{
category = Letter;
glyphname = p;
lastChange = "2021-06-15 15:42:46 +0000";
layers = (
{
layerId = m01;
shapes = (
{
closed = 1;
nodes = (
(181,61,o),
(148,122,o),
(148,242,cs),
(148,366,o),
(182,423,o),
(265,423,cs),
(349,423,o),
(382,366,o),
(382,242,cs),
(382,120,o),
(349,61,o),
(265,61,cs)
);
},
{
closed = 1;
nodes = (
(146,-203,l),
(148,-123,l),
(148,34.863,l),
(173.702,6.469,o),
(210.617,-8,o),
(262,-8,cs),
(404,-8,o),
(460,74,o),
(460,243,cs),
(460,418,o),
(404,496,o),
(262,496,cs),
(213,496,o),
(175,481,o),
(148,450,c),
(146,500,l),
(56,500,l),
(59,420,l),
(70,420,l),
(70,-123,l),
(57,-123,l),
(54,-203,l)
);
}
);
width = 500;
}
);
subCategory = Lowercase;
unicode = 112;
},
{
category = Letter;
glyphname = q;
lastChange = "2021-06-15 15:30:36 +0000";
layers = (
{
layerId = m01;
shapes = (
{
closed = 1;
nodes = (
(158,61,o),
(118,122,o),
(118,244,cs),
(118,371,o),
(158,426,o),
(242,426,cs),
(325,426,o),
(352,371,o),
(352,244,cs),
(352,124,o),
(326,61,o),
(242,61,cs)
);
},
{
closed = 1;
nodes = (
(40,76,o),
(103,-8,o),
(245,-8,cs),
(293.331,-8,o),
(327.831,4.8,o),
(352,29.95,c),
(352,-203,l),
(446,-203,l),
(443,-123,l),
(430,-123,l),
(430,423,l),
(441,423,l),
(444,503,l),
(354,503,l),
(352,458.092,l),
(326.897,485.978,o),
(291.774,499,o),
(245,499,cs),
(103,499,o),
(40,423,o),
(40,245,cs)
);
}
);
width = 500;
}
);
subCategory = Lowercase;
unicode = 113;
},
{
category = Letter;
glyphname = r;
lastChange = "2021-06-15 13:57:32 +0000";
layers = (
{
layerId = m01;
shapes = (
{
closed = 1;
nodes = (
(466,454,l),
(435,486,o),
(390,500,o),
(328,500,cs),
(256.19,500,o),
(207.067,479.716,o),
(176.354,435.564,c),
(166.407,454.928,o),
(152,474,o),
(137,493,c),
(63,443,l),
(75,427,o),
(87,407,o),
(98,386,c),
(114,395,l),
(130,376,o),
(131,361,o),
(131,322,cs),
(131,79,l),
(121,79,l),
(117,-1,l),
(223,-1,l),
(220,79,l),
(209,79,l),
(209,245,ls),
(209,372,o),
(248,429,o),
(331,429,cs),
(344,429,o),
(367,425,o),
(375,422,c),
(370,383,l),
(419,363,l)
);
}
);
width = 500;
}
);
subCategory = Lowercase;
unicode = 114;
},
{
category = Letter;
glyphname = s;
lastChange = "2021-06-15 14:04:09 +0000";
layers = (
{
layerId = m01;
shapes = (
{
closed = 1;
nodes = (
(436,350,l),
(413,443,o),
(348,498,o),
(253,499,cs),
(85,501,o),
(-11,311,o),
(156,244,cs),
(226,216,o),
(268,207,o),
(322,186,cs),
(396,157,o),
(373,63,o),
(270,63,cs),
(197,63,o),
(160,99,o),
(145,156,c),
(69,138,l),
(92,45,o),
(161,-9,o),
(255,-10,cs),
(423,-12,o),
(525,178,o),
(352,245,cs),
(283,272,o),
(240,275,o),
(186,303,cs),
(121,337,o),
(135,426,o),
(238,426,cs),
(311,426,o),
(347,390,o),
(361,333,c)
);
},
{
closed = 1;
nodes = (
(368,455,l),
(436,353,l),
(440,455,l)
);
}
);
width = 500;
}
);
subCategory = Lowercase;
unicode = 115;
},
{
category = Letter;
glyphname = t;
lastChange = "2021-06-15 15:45:29 +0000";
layers = (
{
layerId = m01;
shapes = (
{
closed = 1;
nodes = (
(235,429,l),
(426,429,l),
(426,500,l),
(235,499,l),
(235,702,l),
(157,702,l),
(157,499,l),
(51,499,l),
(51,429,l),
(157,429,l),
(157,200,ls),
(157,59,o),
(194,-2,o),
(271,-2,cs),
(351,-2,o),
(382,34,o),
(426,125,c),
(364,156,l),
(341,106,o),
(310,74,o),
(271,74,cs),
(244,74,o),
(235,116,o),
(235,198,cs)
);
}
);
width = 500;
}
);
subCategory = Lowercase;
unicode = 116;
},
{
category = Letter;
glyphname = u;
lastChange = "2021-06-15 15:30:51 +0000";
layers = (
{
layerId = m01;
shapes = (
{
closed = 1;
nodes = (
(135,490,l),
(47,490,l),
(49,410,l),
(59.352,410,l),
(58,243,ls),
(58,77,o),
(109,-9,o),
(228,-10,cs),
(274.197,-10.537,o),
(316.355,14.03,o),
(345.482,66.648,c),
(358.763,37.637,o),
(378.835,14.23,o),
(406,-14,c),
(460,43,l),
(415,82,o),
(401,112,o),
(401,163,cs),
(400.232,410,l),
(410,410,l),
(413,490,l),
(325,490,l),
(325,410,l),
(325.728,247.875,ls),
(322.317,135.663,o),
(286.982,59,o),
(230,59,cs),
(163,59,o),
(133,122,o),
(133,242,cs)
);
}
);
width = 500;
}
);
subCategory = Lowercase;
unicode = 117;
},
{
category = Letter;
glyphname = v;
lastChange = "2021-06-15 12:04:18 +0000";
layers = (
{
layerId = m01;
shapes = (
{
closed = 1;
nodes = (
(456,500,l),
(374,500,l),
(250,85,l),
(126,500,l),
(44,500,l),
(205,0,l),
(295,0,l)
);
},
{
closed = 1;
nodes = (
(36,500,l),
(38,420,l),
(127,420,l),
(127,500,l)
);
},
{
closed = 1;
nodes = (
(374,420,l),
(463,420,l),
(466,500,l),
(374,500,l)
);
}
);
width = 500;
}
);
subCategory = Lowercase;
unicode = 118;
},
{
category = Letter;
glyphname = w;
lastChange = "2021-06-15 15:33:16 +0000";
layers = (
{
layerId = m01;
shapes = (
{
closed = 1;
nodes = (
(250,190,l),
(303,1,l),
(377,1,l),
(452,499,l),
(382,499,l),
(340,104,l),
(287,280,l),
(214,280,l),
(160,104,l),
(120,499,l),
(50,499,l),
(124,1,l),
(197,1,l)
);
},
{
closed = 1;
nodes = (
(39,499,l),
(41,419,l),
(120,419,l),
(120,499,l)
);
},
{
closed = 1;
nodes = (
(382,419,l),
(462,419,l),
(465,499,l),
(382,499,l)
);
}
);
width = 501;
}
);
subCategory = Lowercase;
unicode = 119;
},
{
category = Letter;
glyphname = x;
lastChange = "2021-06-15 15:36:17 +0000";
layers = (
{
layerId = m01;
shapes = (
{
closed = 1;
nodes = (
(443,1,l),
(142,499,l),
(56,499,l),
(357,1,l)
);
},
{
closed = 1;
nodes = (
(443,499,l),
(357,499,l),
(56,1,l),
(142,1,l)
);
},
{
closed = 1;
nodes = (
(56,499,l),
(58,419,l),
(142,419,l),
(142,499,l)
);
},
{
closed = 1;
nodes = (
(357,419,l),
(441,419,l),
(444,499,l),
(357,499,l)
);
},
{
closed = 1;
nodes = (
(142,81,l),
(58,81,l),
(56,1,l),
(142,1,l)
);
},
{
closed = 1;
nodes = (
(444,1,l),
(441,81,l),
(357,81,l),
(357,1,l)
);
}
);
width = 500;
}
);
subCategory = Lowercase;
unicode = 120;
},
{
category = Letter;
glyphname = y;
lastChange = "2021-06-15 12:10:02 +0000";
layers = (
{
layerId = m01;
shapes = (
{
closed = 1;
nodes = (
(449,500,l),
(368,500,l),
(144,-200,l),
(225,-200,l)
);
},
{
closed = 1;
nodes = (
(262,116,l),
(132,500,l),
(51,500,l),
(217,17,l)
);
},
{
closed = 1;
nodes = (
(41,500,l),
(43,420,l),
(132,420,l),
(132,500,l)
);
},
{
closed = 1;
nodes = (
(368,420,l),
(457,420,l),
(460,500,l),
(368,500,l)
);
},
{
closed = 1;
nodes = (
(215,-201,l),
(212,-121,l),
(123,-121,l),
(119,-201,l)
);
}
);
width = 500;
}
);
subCategory = Lowercase;
unicode = 121;
},
{
category = Letter;
glyphname = z;
lastChange = "2021-06-15 12:11:20 +0000";
layers = (
{
layerId = m01;
shapes = (
{
closed = 1;
nodes = (
(437,70,l),
(164,70,l),
(437,430,l),
(437,500,l),
(64,500,l),
(64,430,l),
(337,430,l),
(64,70,l),
(64,0,l),
(437,0,l)
);
},
{
closed = 1;
nodes = (
(63,408,l),
(143,411,l),
(143,500,l),
(63,500,l)
);
},
{
closed = 1;
nodes = (
(437,92,l),
(357,89,l),
(357,0,l),
(437,0,l)
);
}
);
width = 500;
}
);
subCategory = Lowercase;
unicode = 122;
},
{
glyphname = zero;
lastChange = "2021-06-15 16:02:43 +0000";
layers = (
{
layerId = m01;
shapes = (
{
closed = 1;
nodes = (
(245,627,l),
(164,627,o),
(117,582,o),
(117,350,cs),
(117,137,o),
(164,75,o),
(245,74,c),
(245,-4,l),
(66,-9,o),
(38,150,o),
(38,350,cs),
(38,582,o),
(86,704,o),
(245,704,c)
);
},
{
closed = 1;
nodes = (
(404,704,o),
(452,582,o),
(452,350,cs),
(452,150,o),
(424,-9,o),
(245,-4,c),
(245,74,l),
(326,75,o),
(374,137,o),
(374,350,cs),
(374,582,o),
(326,627,o),
(245,627,c),
(245,704,l)
);
},
{
closed = 1;
nodes = (
(211,303,l),
(298,303,l),
(298,390,l),
(211,390,l)
);
}
);
width = 500;
}
);
unicode = 48;
},
{
glyphname = one;
lastChange = "2021-06-12 08:49:11 +0000";
layers = (
{
layerId = m01;
shapes = (
{
closed = 1;
nodes = (
(425,70,l),
(296,70,l),
(296,697,l),
(219,697,l),
(35,565,l),
(80,508,l),
(219,608,l),
(219,70,l),
(75,70,l),
(75,0,l),
(425,0,l)
);
}
);
width = 500;
}
);
unicode = 49;
},
{
glyphname = two;
lastChange = "2021-06-15 15:59:07 +0000";
layers = (
{
layerId = m01;
shapes = (
{
closed = 1;
nodes = (
(436,112,l),
(372,112,l),
(372,68,l),
(157,68,l),
(353,313,l),
(291,352,l),
(64,68,l),
(64,0,l),
(436,0,l)
);
},
{
closed = 1;
nodes = (
(140,580,o),
(178,632,o),
(250,632,cs),
(405,632,o),
(373,456,o),
(291,352,c),
(353,313,l),
(474,454,o),
(499,700,o),
(251,700,cs),
(131,700,o),
(68,625,o),
(57,527,c),
(134,514,l)
);
}
);
width = 500;
}
);
unicode = 50;
},
{
glyphname = three;
lastChange = "2021-06-15 15:57:12 +0000";
layers = (
{
layerId = m01;
shapes = (
{
closed = 1;
nodes = (
(252,421,l),
(429,629,l),
(429,699,l),
(66,699,l),
(66,558,l),
(133,558,l),
(133,629,l),
(334,629,l),
(157,421,l),
(157,355,l),
(252,355,l)
);
},
{
closed = 1;
nodes = (
(250,355,l),
(328,355,o),
(366,335,o),
(366,214,cs),
(366,97,o),
(330,58,o),
(252,58,cs),
(186,58,o),
(154,100,o),
(145,180,c),
(66,181,l),
(78,56,o),
(133,-8,o),
(249,-8,cs),
(382,-8,o),
(439,53,o),
(439,215,cs),
(439,361,o),
(382,421,o),
(250,421,c)
);
}
);
width = 500;
}
);
unicode = 51;
},
{
glyphname = four;
lastChange = "2021-06-15 16:00:13 +0000";
layers = (
{
layerId = m01;
shapes = (
{
closed = 1;
nodes = (
(432,251,l),
(141,251,l),
(401,700,l),
(314,700,l),
(54,251,l),
(54,185,l),
(432,185,l)
);
},
{
closed = 1;
nodes = (
(432,68,l),
(402,68,l),
(402,423,l),
(325,423,l),
(325,68,l),
(233,68,l),
(233,-1,l),
(432,0,l)
);
}
);
width = 500;
}
);
unicode = 52;
},
{
glyphname = five;
lastChange = "2021-06-15 15:59:53 +0000";
layers = (
{
layerId = m01;
shapes = (
{
closed = 1;
nodes = (
(147,304,l),
(158,376,o),
(191,408,o),
(252,408,cs),
(330,408,o),
(365,355,o),
(365,234,cs),
(365,117,o),
(330,58,o),
(252,58,cs),
(186,58,o),
(154,100,o),
(145,180,c),
(66,181,l),
(78,56,o),
(133,-8,o),
(249,-8,cs),
(382,-8,o),
(438,73,o),
(438,235,cs),
(438,405,o),
(382,478,o),
(249,478,cs),
(138,478,o),
(82,425,o),
(68,305,c)
);
},
{
closed = 1;
nodes = (
(69,629,l),
(340,629,l),
(340,579,l),
(416,579,l),
(417,700,l),
(70,700,l)
);
},
{
closed = 1;
nodes = (
(68,305,l),
(147,305,l),
(147,700,l),
(68,700,l)
);
}
);
width = 500;
}
);
unicode = 53;
},
{
glyphname = six;
lastChange = "2021-06-12 13:14:20 +0000";
layers = (
{
layerId = m01;
shapes = (
{
closed = 1;
nodes = (
(174,50,o),
(142,104,o),
(142,205,cs),
(142,312,o),
(175,359,o),
(255,359,cs),
(337,359,o),
(369,312,o),
(369,205,cs),
(369,102,o),
(337,50,o),
(255,50,cs)
);
},
{
closed = 1;
nodes = (
(391,-8,o),
(445,63,o),
(445,206,cs),
(445,356,o),
(391,421,o),
(253,421,cs),
(117,421,o),
(61,356,o),
(61,206,cs),
(61,66,o),
(115,-8,o),
(253,-8,cs)
);
},
{
closed = 1;
nodes = (
(197,616,o),
(175,595,o),
(118,469,cs),
(76,376,o),
(62,275,o),
(62,207,c),
(143,206,l),
(143,275,o),
(168,379,o),
(197,448,cs),
(234,537,o),
(280,604,o),
(334,700,c),
(249,700,l)
);
}
);
width = 500;
}
);
unicode = 54;
},
{
glyphname = seven;
lastChange = "2021-06-12 08:51:33 +0000";
layers = (
{
layerId = m01;
shapes = (
{
closed = 1;
nodes = (
(436,629,l),
(436,699,l),
(64,699,l),
(64,554,l),
(141,554,l),
(141,629,l),
(355,629,l),
(146,1,l),
(226,1,l)
);
}
);
width = 500;
}
);
unicode = 55;
},
{
glyphname = eight;
lastChange = "2021-06-15 15:55:44 +0000";
layers = (
{
layerId = m01;
shapes = (
{
closed = 1;
nodes = (
(323,339,o),
(375,258,o),
(375,198,cs),
(375,99,o),
(311,63,o),
(248,63,cs),
(180,63,o),
(120,99,o),
(120,198,cs),
(120,262,o),
(170,339,o),
(248,339,cs)
);
},
{
closed = 1;
nodes = (
(111,393,o),
(45,298,o),
(45,197,cs),
(45,59,o),
(122,-1,o),
(250,-1,cs),
(373,-1,o),
(455,59,o),
(455,197,cs),
(455,294,o),
(386,393,o),
(250,393,cs)
);
},
{
closed = 1;
nodes = (
(173,398,o),
(144,457,o),
(144,523,cs),
(144,600,o),
(183,635,o),
(248,635,cs),
(311,635,o),
(351,600,o),
(351,523,cs),
(351,461,o),
(322,398,o),
(248,398,cs)
);
},
{
closed = 1;
nodes = (
(376,351,o),
(425,429,o),
(425,524,cs),
(425,635,o),
(364,698,o),
(250,698,cs),
(134,698,o),
(75,635,o),
(75,524,cs),
(75,426,o),
(123,351,o),
(250,351,cs)
);
}
);
width = 500;
}
);
unicode = 56;
},
{
glyphname = nine;
lastChange = "2021-06-15 15:56:37 +0000";
layers = (
{
layerId = m01;
shapes = (
{
closed = 1;
nodes = (
(321,628,o),
(364,588,o),
(364,487,cs),
(364,380,o),
(331,343,o),
(251,343,cs),
(177,343,o),
(137,391,o),
(137,487,cs),
(137,583,o),
(183,628,o),
(251,628,cs)
);
},
{
closed = 1;
nodes = (
(128,700,o),
(61,622,o),
(61,486,cs),
(61,347,o),
(123,271,o),
(253,271,cs),
(389,271,o),
(436,336,o),
(436,486,cs),
(436,626,o),
(380,700,o),
(253,700,cs)
);
},
{
closed = 1;
nodes = (
(309,76,o),
(327,92,o),
(383,223,cs),
(423,316,o),
(435,417,o),
(435,485,c),
(363,486,l),
(363,417,o),
(338,313,o),
(309,244,cs),
(272,155,o),
(226,88,o),
(172,-8,c),
(257,-8,l)
);
}
);
width = 500;
}
);
unicode = 57;
},
{
glyphname = .notdef;
lastChange = "2021-06-12 07:17:57 +0000";
layers = (
{
layerId = m01;
shapes = (
{
closed = 1;
nodes = (
(427,700,l),
(73,700,l),
(73,0,l),
(427,0,l)
);
},
{
closed = 1;
nodes = (
(295,671,l),
(384,671,l),
(102,317,l),
(102,429,l)
);
},
{
closed = 1;
nodes = (
(177,671,l),
(265,671,l),
(102,466,l),
(102,578,l)
);
},
{
closed = 1;
nodes = (
(146,671,l),
(102,615,l),
(102,671,l)
);
},
{
closed = 1;
nodes = (
(398,650,l),
(398,539,l),
(102,169,l),
(102,280,l)
);
},
{
closed = 1;
nodes = (
(398,502,l),
(398,390,l),
(109,29,l),
(102,29,l),
(102,131,l)
);
},
{
closed = 1;
nodes = (
(398,242,l),
(228,29,l),
(139,29,l),
(398,353,l)
);
},
{
closed = 1;
nodes = (
(398,92,l),
(347,29,l),
(257,29,l),
(398,205,l)
);
},
{
closed = 1;
nodes = (
(398,55,l),
(398,29,l),
(376,29,l)
);
}
);
width = 500;
}
);
},
{
glyphname = hyphen_greater.liga;
lastChange = "2021-06-13 04:10:55 +0000";
layers = (
{
layerId = m01;
shapes = (
{
closed = 1;
nodes = (
(50,375,l),
(50,305,l),
(839,305,l),
(839,375,l)
);
},
{
closed = 1;
nodes = (
(550,249,l),
(550,169,l),
(950,300,l),
(950,380,l)
);
},
{
closed = 1;
nodes = (
(950,380,l),
(550,511,l),
(550,431,l),
(950,300,l)
);
}
);
width = 1000;
}
);
},
{
glyphname = period;
lastChange = "2021-06-15 16:07:42 +0000";
layers = (
{
layerId = m01;
shapes = (
{
closed = 1;
nodes = (
(200,0,l),
(308,0,l),
(308,108,l),
(200,108,l)
);
}
);
width = 500;
}
);
unicode = 46;
},
{
glyphname = comma;
lastChange = "2021-06-15 16:17:21 +0000";
layers = (
{
layerId = m01;
shapes = (
{
closed = 1;
nodes = (
(200,5,ls),
(200,-30,o),
(193,-63,o),
(160,-97,c),
(200,-135,l),
(266,-88,o),
(301,-51,o),
(304,11,cs),
(308,108,l),
(200,108,l)
);
}
);
width = 500;
}
);
unicode = 44;
},
{
glyphname = comma_at.liga;
lastChange = "2021-06-15 16:29:01 +0000";
layers = (
{
layerId = m01;
shapes = (
{
closed = 1;
nodes = (
(912,336,l),
(912,596,o),
(861,643,o),
(719,643,cs),
(609,643,o),
(493,531,o),
(529,282,cs),
(554,110,o),
(502,130,o),
(391,182,cs),
(295,227,o),
(200,149,o),
(200,81,c),
(308,54,l),
(308,94,o),
(336,122,o),
(387,96,cs),
(522,27,o),
(627,25,o),
(601,292,cs),
(584,469,o),
(639,567,o),
(722,567,cs),
(806,567,o),
(838,539,o),
(838,338,c)
);
},
{
closed = 1;
nodes = (
(838,345,l),
(838,237,o),
(829,190,o),
(796,192,c),
(727,191,o),
(658,427,o),
(860,427,c),
(851,483,l),
(590,501,o),
(620,122,o),
(791,122,cs),
(851,122,o),
(912,165,o),
(912,344,c)
);
},
{
closed = 1;
nodes = (
(200,5,ls),
(200,-30,o),
(193,-63,o),
(160,-97,c),
(200,-135,l),
(266,-88,o),
(298,-51,o),
(304,11,cs),
(308,54,l),
(200,81,l)
);
}
);
width = 1000;
}
);
},
{
glyphname = exclam;
lastChange = "2021-06-15 16:31:40 +0000";
layers = (
{
layerId = m01;
shapes = (
{
closed = 1;
nodes = (
(216,213,l),
(284,212,l),
(301,700,l),
(199,701,l)
);
},
{
closed = 1;
nodes = (
(215,0,l),
(293,0,l),
(293,88,l),
(215,88,l)
);
}
);
width = 500;
}
);
unicode = 33;
},
{
glyphname = question;
lastChange = "2021-06-15 16:34:39 +0000";
layers = (
{
layerId = m01;
shapes = (
{
closed = 1;
nodes = (
(157,560,l),
(190,582,l),
(177,616,l),
(280,684,o),
(359,604,o),
(359,528,cs),
(359,455,o),
(229,393,o),
(224,199,c),
(282,199,l),
(293,395,o),
(422,430,o),
(422,528,cs),
(422,698,o),
(232,757,o),
(98,631,c)
);
},
{
closed = 1;
nodes = (
(215,0,l),
(293,0,l),
(293,88,l),
(215,88,l)
);
},
{
closed = 1;
nodes = (
(215,0,l),
(293,0,l),
(293,88,l),
(215,88,l)
);
}
);
width = 500;
}
);
unicode = 63;
},
{
glyphname = questiondown;
lastChange = "2021-06-13 03:27:24 +0000";
layers = (
{
layerId = m01;
shapes = (
{
closed = 1;
nodes = (
(207,581,o),
(181,554,o),
(181,522,cs),
(181,490,o),
(207,463,o),
(240,463,cs),
(272,463,o),
(299,490,o),
(299,522,cs),
(299,554,o),
(272,581,o),
(240,581,cs)
);
},
{
closed = 1;
nodes = (
(232,-173,o),
(422,-114,o),
(422,56,cs),
(422,173,o),
(321,192,o),
(282,351,c),
(212,334,l),
(245,177,o),
(352,136,o),
(352,44,cs),
(352,-15,o),
(268,-105,o),
(133,4,c),
(98,-47,l)
);
}
);
width = 500;
}
);
unicode = 191;
},
{
glyphname = periodcentered;
lastChange = "2021-06-13 03:29:10 +0000";
layers = (
{
layerId = m01;
shapes = (
{
closed = 1;
nodes = (
(277,290,o),
(300,313,o),
(300,340,cs),
(300,367,o),
(277,390,o),
(250,390,cs),
(222,390,o),
(200,367,o),
(200,340,cs),
(200,313,o),
(222,290,o),
(250,290,cs)
);
}
);
width = 500;
}
);
unicode = 183;
},
{
glyphname = bullet;
lastChange = "2021-06-13 03:27:55 +0000";
layers = (
{
layerId = m01;
shapes = (
{
closed = 1;
nodes = (
(289,269,o),
(321,301,o),
(321,340,cs),
(321,379,o),
(289,411,o),
(250,411,cs),
(210,411,o),
(179,379,o),
(179,340,cs),
(179,301,o),
(210,269,o),
(250,269,cs)
);
}
);
width = 500;
}
);
unicode = 8226;
},
{
glyphname = asterisk;
lastChange = "2021-06-15 16:37:27 +0000";
layers = (
{
layerId = m01;
shapes = (
{
closed = 1;
nodes = (
(263,331,l),
(265,360,o),
(278,397,o),
(279,426,cs),
(284,532,l),
(212,532,l),
(217,426,ls),
(218,397,o),
(232,360,o),
(234,331,c)
);
},
{
closed = 1;
nodes = (
(253,317,l),
(282,324,o),
(321,323,o),
(349,331,cs),
(451,359,l),
(429,428,l),
(330,390,l),
(302,379,o),
(271,356,o),
(245,345,c)
);
},
{
closed = 1;
nodes = (
(236,321,l),
(251,297,o),
(263,260,o),
(279,235,cs),
(337,146,l),
(395,189,l),
(329,271,ls),
(311,294,o),
(278,316,o),
(259,338,c)
);
},
{
closed = 1;
nodes = (
(236,340,l),
(217,318,o),
(185,296,o),
(167,273,cs),
(100,190,l),
(159,148,l),
(217,236,ls),
(233,260,o),
(244,299,o),
(259,323,c)
);
},
{
closed = 1;
nodes = (
(253,346,l),
(226,357,o),
(195,380,o),
(168,390,cs),
(69,428,l),
(46,359,l),
(149,331,ls),
(177,323,o),
(216,325,o),
(244,318,c)
);
}
);
width = 500;
}
);
unicode = 42;
},
{
glyphname = numbersign;
lastChange = "2021-06-15 16:48:31 +0000";
layers = (
{
layerId = m01;
shapes = (
{
closed = 1;
nodes = (
(299,53,l),
(361,53,l),
(361,627,l),
(299,627,l)
);
},
{
closed = 1;
nodes = (
(139,53,l),
(201,53,l),
(201,627,l),
(139,627,l)
);
},
{
closed = 1;
nodes = (
(63,483,l),
(63,421,l),
(437,421,l),
(437,483,l)
);
},
{
closed = 1;
nodes = (
(63,259,l),
(63,197,l),
(437,197,l),
(437,259,l)
);
}
);
width = 500;
}
);
unicode = 35;
},
{
glyphname = numbersign_parenleft.liga;
lastChange = "2021-06-15 16:48:40 +0000";
layers = (
{
layerId = m01;
shapes = (
{
pos = (90,0);
ref = numbersign;
},
{
pos = (463,0);
ref = parenleft;
},
{
closed = 1;
nodes = (
(515,421,l),
(597,421,l),
(597,483,l),
(515,483,l)
);
},
{
closed = 1;
nodes = (
(515,197,l),
(597,197,l),
(597,259,l),
(515,259,l)
);
}
);
width = 1000;
}
);
},
{
glyphname = numbersign_semicolon.liga;
lastChange = "2021-06-15 16:49:00 +0000";
layers = (
{
layerId = m01;
shapes = (
{
pos = (105,0);
ref = numbersign;
},
{
pos = (583,151);
ref = comma;
scale = (0.7688,1);
},
{
closed = 1;
nodes = (
(507,197,l),
(776,197,l),
(776,259,l),
(507,259,l)
);
},
{
closed = 1;
nodes = (
(508,421,l),
(780,421,l),
(780,483,l),
(508,483,l)
);
},
{
pos = (580,375);
ref = period;
scale = (0.7853,1);
}
);
width = 1000;
}
);
},
{
glyphname = numbersign_semicolon_parenleft.liga;
lastChange = "2021-06-15 16:49:11 +0000";
layers = (
{
layerId = m01;
shapes = (
{
ref = numbersign_semicolon.liga;
},
{
pos = (947,-4);
ref = parenleft;
},
{
closed = 1;
nodes = (
(800,197,l),
(1069,197,l),
(1069,259,l),
(800,259,l)
);
},
{
closed = 1;
nodes = (
(801,421,l),
(1073,421,l),
(1073,483,l),
(801,483,l)
);
}
);
width = 1500;
}
);
},
{
glyphname = numbersign_bar.liga;
lastChange = "2021-06-15 16:48:25 +0000";
layers = (
{
layerId = m01;
shapes = (
{
pos = (93,-1);
ref = numbersign;
},
{
pos = (435,0);
ref = bar;
},
{
closed = 1;
nodes = (
(507,197,l),
(708,197,l),
(708,259,l),
(507,259,l)
);
},
{
closed = 1;
nodes = (
(508,421,l),
(712,421,l),
(712,483,l),
(508,483,l)
);
}
);
width = 1000;
}
);
},
{
glyphname = numbersign_backslash.liga;
lastChange = "2021-06-15 16:49:53 +0000";
layers = (
{
layerId = m01;
shapes = (
{
pos = (101,0);
ref = numbersign;
},
{
pos = (499,0);
ref = backslash;
},
{
closed = 1;
nodes = (
(507,197,l),
(776,197,l),
(776,259,l),
(507,259,l)
);
},
{
closed = 1;
nodes = (
(508,421,l),
(708,421,l),
(708,483,l),
(508,483,l)
);
}
);
width = 1000;
}
);
},
{
glyphname = backslash;
lastChange = "2021-06-14 09:10:09 +0000";
layers = (
{
layerId = m01;
shapes = (
{
closed = 1;
nodes = (
(86,701,l),
(340,1,l),
(413,1,l),
(159,701,l)
);
}
);
width = 500;
}
);
unicode = 92;
},
{
glyphname = quotesingle_parenleft.liga;
lastChange = "2021-06-14 17:25:21 +0000";
layers = (
{
layerId = m01;
shapes = (
{
closed = 1;
nodes = (
(452,444,l),
(488,444,l),
(447,746,l),
(367,746,l)
);
}
);
width = 1000;
}
);
},
{
glyphname = hyphen;
lastChange = "2021-06-12 13:43:02 +0000";
layers = (
{
layerId = m01;
shapes = (
{
closed = 1;
nodes = (
(50,305,l),
(450,305,l),
(450,375,l),
(50,375,l)
);
}
);
width = 500;
}
);
unicode = 45;
},
{
glyphname = underscore;
lastChange = "2021-06-12 14:54:54 +0000";
layers = (
{
layerId = m01;
shapes = (
{
closed = 1;
nodes = (
(80,-39,l),
(420,-39,l),
(420,33,l),
(80,33,l)
);
}
);
width = 500;
}
);
unicode = 95;
},
{
glyphname = parenleft;
lastChange = "2021-06-15 16:24:12 +0000";
layers = (
{
layerId = m01;
shapes = (
{
closed = 1;
nodes = (
(182,689,o),
(89,552,o),
(89,334,c),
(157,334,l),
(155,499,o),
(224,637,o),
(398,694,c),
(374,755,l)
);
},
{
closed = 1;
nodes = (
(398,-26,l),
(224,31,o),
(155,169,o),
(157,334,c),
(89,334,l),
(89,116,o),
(182,-21,o),
(374,-87,c)
);
}
);
width = 500;
}
);
unicode = 40;
},
{
glyphname = braceleft;
lastChange = "2021-06-15 16:51:11 +0000";
layers = (
{
layerId = m01;
shapes = (
{
closed = 1;
nodes = (
(284,740,o),
(176,688,o),
(170,552,cs),
(165,447,o),
(143,407,o),
(58,388,c),
(58,292,l),
(161,315,o),
(229,342,o),
(233,505,cs),
(236,617,o),
(303,669,o),
(375,676,c),
(375,757,l)
);
},
{
closed = 1;
nodes = (
(375,4,l),
(306,11,o),
(236,62,o),
(233,175,cs),
(229,338,o),
(161,365,o),
(58,388,c),
(58,292,l),
(143,273,o),
(165,233,o),
(170,128,cs),
(176,-8,o),
(284,-60,o),
(375,-77,c)
);
}
);
width = 500;
}
);
unicode = 123;
},
{
glyphname = bracketleft;
lastChange = "2021-06-15 16:51:27 +0000";
layers = (
{
layerId = m01;
shapes = (
{
closed = 1;
nodes = (
(411,20,l),
(195,20,l),
(195,660,l),
(411,660,l),
(411,727,l),
(126,727,l),
(126,-47,l),
(411,-47,l)
);
}
);
width = 500;
}
);
unicode = 91;
},
{
glyphname = bracketright;
lastChange = "2021-06-13 21:49:58 +0000";
layers = (
{
layerId = m01;
shapes = (
{
closed = 1;
nodes = (
(374,-47,l),
(374,727,l),
(89,727,l),
(89,657,l),
(296,657,l),
(296,23,l),
(89,23,l),
(89,-47,l)
);
}
);
width = 500;
}
);
unicode = 93;
},
{
glyphname = quotedbl;
lastChange = "2021-06-13 03:31:11 +0000";
layers = (
{
layerId = m01;
shapes = (
{
closed = 1;
nodes = (
(127,463,l),
(183,463,l),
(195,700,l),
(115,700,l)
);
},
{
closed = 1;
nodes = (
(317,463,l),
(373,463,l),
(385,700,l),
(305,700,l)
);
}
);
width = 500;
}
);
unicode = 34;
},
{
glyphname = quotesingle;
lastChange = "2021-06-13 03:31:19 +0000";
layers = (
{
layerId = m01;
shapes = (
{
closed = 1;
nodes = (
(222,463,l),
(278,463,l),
(290,700,l),
(210,700,l)
);
}
);
width = 500;
}
);
unicode = 39;
},
{
glyphname = at;
lastChange = "2021-06-15 16:29:19 +0000";
layers = (
{
layerId = m01;
shapes = (
{
closed = 1;
nodes = (
(451,349,l),
(451,595,o),
(400,651,o),
(258,651,cs),
(119,651,o),
(61,545,o),
(61,299,cs),
(61,67,o),
(117,-53,o),
(258,-53,c),
(410,-53,l),
(408,29,l),
(261,27,l),
(177,27,o),
(135,131,o),
(135,296,cs),
(135,473,o),
(178,561,o),
(261,561,cs),
(345,561,o),
(377,528,o),
(377,351,c)
);
},
{
closed = 1;
nodes = (
(377,359,l),
(377,263,o),
(355,209,o),
(322,212,c),
(276,211,o),
(184,410,o),
(386,410,c),
(390,479,l),
(119,506,o),
(159,127,o),
(330,127,cs),
(390,127,o),
(451,178,o),
(451,358,c)
);
}
);
width = 500;
}
);
unicode = 64;
},
{
glyphname = ampersand;
lastChange = "2021-06-14 09:15:14 +0000";
layers = (
{
layerId = m01;
shapes = (
{
closed = 1;
nodes = (
(431,-1,l),
(311,229,o),
(199,389,o),
(179,449,cs),
(160,505,o),
(199,543,o),
(250,541,cs),
(297,539,o),
(315,511,o),
(324,437,c),
(380,444,l),
(370,538,o),
(334,600,o),
(249,604,cs),
(159,609,o),
(88,529,o),
(109,450,cs),
(134,357,o),
(267,176,o),
(355,-1,c)
);
},
{
closed = 1;
nodes = (
(179,344,l),
(126,281,o),
(90,201,o),
(86,155,cs),
(80,61,o),
(126,-4,o),
(235,-5,cs),
(357,-6,o),
(406,164,o),
(419,244,c),
(355,244,l),
(350,195,o),
(291,63,o),
(237,63,cs),
(175,63,o),
(144,89,o),
(153,161,cs),
(155,183,o),
(179,239,o),
(211,281,c)
);
}
);
width = 500;
}
);
unicode = 38;
},
{
glyphname = copyright;
lastChange = "2021-06-13 03:56:10 +0000";
layers = (
{
layerId = m01;
shapes = (
{
closed = 1;
nodes = (
(365,125,o),
(465,224,o),
(465,340,cs),
(465,455,o),
(365,555,o),
(250,555,cs),
(134,555,o),
(35,455,o),
(35,340,cs),
(35,224,o),
(134,125,o),
(250,125,cs)
);
},
{
closed = 1;
nodes = (
(159,180,o),
(90,249,o),
(90,340,cs),
(90,430,o),
(159,500,o),
(250,500,cs),
(340,500,o),
(410,430,o),
(410,340,cs),
(410,249,o),
(340,180,o),
(250,180,cs)
);
},
{
closed = 1;
nodes = (
(346,269,l),
(324,240,o),
(289,220,o),
(250,220,cs),
(184,220,o),
(130,274,o),
(130,340,cs),
(130,405,o),
(184,460,o),
(250,460,cs),
(287,460,o),
(322,441,o),
(345,413,c),
(311,388,l),
(296,406,o),
(274,415,o),
(250,415,cs),
(206,415,o),
(175,383,o),
(175,340,cs),
(175,296,o),
(206,263,o),
(250,263,cs),
(275,263,o),
(297,278,o),
(312,297,c)
);
}
);
width = 500;
}
);
unicode = 169;
},
{
glyphname = bar;
lastChange = "2021-06-12 13:42:34 +0000";
layers = (
{
layerId = m01;
shapes = (
{
closed = 1;
nodes = (
(215,-63,l),
(285,-63,l),
(285,743,l),
(215,743,l)
);
}
);
width = 500;
}
);
unicode = 124;
},
{
glyphname = less_hyphen.liga;
lastChange = "2021-06-13 14:48:32 +0000";
layers = (
{
layerId = m01;
shapes = (
{
closed = 1;
nodes = (
(161,308,l),
(950,303,l),
(950,377,l),
(161,372,l)
);
},
{
pos = (16,0);
ref = less;
}
);
width = 1000;
}
);
},
{
glyphname = dollar;
lastChange = "2021-06-12 13:43:23 +0000";
layers = (
{
layerId = m01;
shapes = (
{
closed = 1;
nodes = (
(428,439,l),
(406,537,o),
(345,582,o),
(249,583,cs),
(91,585,o),
(-17,406,o),
(155,328,c),
(345,329,l),
(277,353,o),
(237,364,o),
(184,387,cs),
(109,420,o),
(140,510,o),
(235,510,cs),
(310,510,o),
(342,482,o),
(356,420,c)
);
},
{
closed = 1;
nodes = (
(72,218,l),
(94,120,o),
(155,75,o),
(251,74,cs),
(409,72,o),
(517,251,o),
(345,329,c),
(155,328,l),
(223,304,o),
(263,293,o),
(316,270,cs),
(391,237,o),
(361,147,o),
(265,147,cs),
(190,147,o),
(159,175,o),
(144,237,c)
);
},
{
closed = 1;
nodes = (
(217,-19,l),
(287,-19,l),
(285,699,l),
(215,699,l)
);
}
);
width = 500;
}
);
unicode = 36;
},
{
glyphname = minus;
lastChange = "2021-06-12 15:28:25 +0000";
layers = (
{
layerId = m01;
shapes = (
{
closed = 1;
nodes = (
(50,305,l),
(450,305,l),
(450,375,l),
(50,375,l)
);
}
);
width = 500;
}
);
unicode = 8722;
},
{
glyphname = multiply;
lastChange = "2021-06-12 15:30:48 +0000";
layers = (
{
layerId = m01;
shapes = (
{
closed = 1;
nodes = (
(76,464,l),
(375,168,l),
(423,216,l),
(124,512,l)
);
},
{
closed = 1;
nodes = (
(380,518,l),
(72,210,l),
(120,162,l),
(429,470,l)
);
}
);
width = 500;
}
);
unicode = 215;
},
{
glyphname = divide;
lastChange = "2021-06-12 15:32:08 +0000";
layers = (
{
layerId = m01;
shapes = (
{
closed = 1;
nodes = (
(50,304,l),
(450,305,l),
(450,375,l),
(50,374,l)
);
},
{
closed = 1;
nodes = (
(287,432,o),
(313,460,o),
(313,496,cs),
(313,532,o),
(287,558,o),
(251,558,cs),
(214,558,o),
(187,532,o),
(187,496,cs),
(187,460,o),
(214,432,o),
(251,432,cs)
);
},
{
closed = 1;
nodes = (
(287,119,o),
(313,147,o),
(313,183,cs),
(313,219,o),
(287,245,o),
(251,245,cs),
(214,245,o),
(187,219,o),
(187,183,cs),
(187,147,o),
(214,119,o),
(251,119,cs)
);
}
);
width = 500;
}
);
unicode = 247;
},
{
glyphname = notequal;
lastChange = "2021-06-13 14:36:41 +0000";
layers = (
{
layerId = m01;
shapes = (
{
closed = 1;
nodes = (
(94,136,l),
(175,137,l),
(406,544,l),
(325,544,l)
);
},
{
ref = equal;
}
);
width = 500;
}
);
unicode = 8800;
},
{
glyphname = greater;
lastChange = "2021-06-13 14:24:18 +0000";
layers = (
{
layerId = m01;
shapes = (
{
closed = 1;
nodes = (
(456,380,l),
(56,529,l),
(56,449,l),
(456,305,l)
);
},
{
closed = 1;
nodes = (
(56,231,l),
(56,151,l),
(456,300,l),
(456,375,l)
);
}
);
width = 500;
}
);
unicode = 62;
},
{
glyphname = greaterequal;
lastChange = "2021-06-14 09:38:52 +0000";
layers = (
{
layerId = m01;
shapes = (
{
pos = (0,79);
ref = greater;
},
{
closed = 1;
nodes = (
(56,152,l),
(56,72,l),
(456,221,l),
(456,296,l)
);
}
);
width = 500;
}
);
unicode = 8805;
},
{
glyphname = lessequal;
lastChange = "2021-06-13 14:51:09 +0000";
layers = (
{
layerId = m01;
shapes = (
{
ref = less;
},
{
closed = 1;
nodes = (
(44,172,l),
(444,23,l),
(444,103,l),
(44,247,l)
);
}
);
width = 500;
}
);
unicode = 8804;
},
{
glyphname = asciitilde;
lastChange = "2021-06-13 14:34:39 +0000";
layers = (
{
layerId = m01;
shapes = (
{
closed = 1;
nodes = (
(243,375,l),
(166,413,o),
(96,396,o),
(39,336,c),
(80,296,l),
(128,346,o),
(178,350,o),
(257,305,c)
);
},
{
closed = 1;
nodes = (
(257,305,l),
(334,268,o),
(404,284,o),
(461,344,c),
(421,384,l),
(373,334,o),
(322,334,o),
(243,375,c)
);
}
);
width = 500;
}
);
unicode = 126;
},
{
glyphname = asciicircum;
lastChange = "2021-06-12 13:42:45 +0000";
layers = (
{
layerId = m01;
shapes = (
{
closed = 1;
nodes = (
(285,664,l),
(215,664,l),
(319,474,l),
(389,474,l)
);
},
{
closed = 1;
nodes = (
(285,664,l),
(215,664,l),
(111,474,l),
(181,474,l)
);
}
);
width = 500;
}
);
unicode = 94;
},
{
glyphname = percent;
lastChange = "2021-06-12 15:23:28 +0000";
layers = (
{
layerId = m01;
shapes = (
{
closed = 1;
nodes = (
(89,0,l),
(166,0,l),
(422,700,l),
(345,700,l)
);
},
{
closed = 1;
nodes = (
(345,0,l),
(422,0,l),
(422,170,l),
(345,170,l)
);
},
{
closed = 1;
nodes = (
(89,530,l),
(166,530,l),
(166,700,l),
(89,700,l)
);
}
);
width = 500;
}
);
unicode = 37;
},
{
glyphname = perthousand;
lastChange = "2021-06-12 15:24:23 +0000";
layers = (
{
layerId = m01;
shapes = (
{
closed = 1;
nodes = (
(74,0,l),
(151,0,l),
(371,700,l),
(294,700,l)
);
},
{
closed = 1;
nodes = (
(372,0,l),
(449,0,l),
(449,170,l),
(372,170,l)
);
},
{
closed = 1;
nodes = (
(74,530,l),
(151,530,l),
(151,700,l),
(74,700,l)
);
},
{
closed = 1;
nodes = (
(246,0,l),
(323,0,l),
(323,170,l),
(246,170,l)
);
}
);
width = 500;
}
);
unicode = 8240;
},
{
glyphname = upArrow;
lastChange = "2021-06-12 15:41:47 +0000";
layers = (
{
layerId = m01;
shapes = (
{
closed = 1;
nodes = (
(285,130,l),
(285,550,l),
(215,550,l),
(215,130,l)
);
},
{
closed = 1;
nodes = (
(155,290,l),
(278,510,l),
(215,550,l),
(87,329,l)
);
},
{
closed = 1;
nodes = (
(285,550,l),
(223,510,l),
(345,290,l),
(413,329,l)
);
}
);
width = 500;
}
);
unicode = 8593;
},
{
glyphname = northEastArrow;
lastChange = "2021-06-12 15:41:34 +0000";
layers = (
{
layerId = m01;
shapes = (
{
closed = 1;
nodes = (
(126,167,l),
(423,464,l),
(374,513,l),
(77,216,l)
);
},
{
closed = 1;
nodes = (
(147,372,l),
(390,440,l),
(374,513,l),
(127,447,l)
);
},
{
closed = 1;
nodes = (
(423,464,l),
(351,479,l),
(282,237,l),
(357,217,l)
);
}
);
width = 500;
}
);
unicode = 8599;
},
{
glyphname = rightArrow;
lastChange = "2021-06-12 15:41:00 +0000";
layers = (
{
layerId = m01;
shapes = (
{
closed = 1;
nodes = (
(40,305,l),
(460,305,l),
(460,375,l),
(40,375,l)
);
},
{
closed = 1;
nodes = (
(200,435,l),
(420,312,l),
(460,375,l),
(239,503,l)
);
},
{
closed = 1;
nodes = (
(460,305,l),
(420,367,l),
(200,245,l),
(239,177,l)
);
}
);
width = 500;
}
);
unicode = 8594;
},
{
glyphname = southEastArrow;
lastChange = "2021-06-12 15:41:21 +0000";
layers = (
{
layerId = m01;
shapes = (
{
closed = 1;
nodes = (
(77,464,l),
(374,167,l),
(423,216,l),
(126,513,l)
);
},
{
closed = 1;
nodes = (
(282,443,l),
(350,200,l),
(423,216,l),
(357,463,l)
);
},
{
closed = 1;
nodes = (
(374,167,l),
(389,239,l),
(147,308,l),
(127,233,l)
);
}
);
width = 500;
}
);
unicode = 8600;
},
{
glyphname = downArrow;
lastChange = "2021-06-12 15:41:57 +0000";
layers = (
{
layerId = m01;
shapes = (
{
closed = 1;
nodes = (
(215,550,l),
(215,130,l),
(285,130,l),
(285,550,l)
);
},
{
closed = 1;
nodes = (
(345,390,l),
(222,170,l),
(285,130,l),
(413,351,l)
);
},
{
closed = 1;
nodes = (
(215,130,l),
(277,170,l),
(155,390,l),
(87,351,l)
);
}
);
width = 500;
}
);
unicode = 8595;
},
{
glyphname = southWestArrow;
lastChange = "2021-06-12 15:44:34 +0000";
layers = (
{
layerId = m01;
shapes = (
{
closed = 1;
nodes = (
(374,513,l),
(77,216,l),
(126,167,l),
(423,464,l)
);
},
{
closed = 1;
nodes = (
(353,308,l),
(110,240,l),
(126,167,l),
(373,233,l)
);
},
{
closed = 1;
nodes = (
(77,216,l),
(149,201,l),
(218,443,l),
(143,463,l)
);
}
);
width = 500;
}
);
unicode = 8601;
},
{
glyphname = leftArrow;
lastChange = "2021-06-12 15:42:05 +0000";
layers = (
{
layerId = m01;
shapes = (
{
closed = 1;
nodes = (
(460,375,l),
(40,375,l),
(40,305,l),
(460,305,l)
);
},
{
closed = 1;
nodes = (
(300,245,l),
(80,368,l),
(40,305,l),
(261,177,l)
);
},
{
closed = 1;
nodes = (
(40,375,l),
(80,313,l),
(300,435,l),
(261,503,l)
);
}
);
width = 500;
}
);
unicode = 8592;
},
{
glyphname = northWestArrow;
lastChange = "2021-06-12 15:42:19 +0000";
layers = (
{
layerId = m01;
shapes = (
{
closed = 1;
nodes = (
(423,216,l),
(126,513,l),
(77,464,l),
(374,167,l)
);
},
{
closed = 1;
nodes = (
(218,237,l),
(150,480,l),
(77,464,l),
(143,217,l)
);
},
{
closed = 1;
nodes = (
(126,513,l),
(111,441,l),
(353,372,l),
(373,447,l)
);
}
);
width = 500;
}
);
unicode = 8598;
},
{
glyphname = leftRightArrow;
lastChange = "2021-06-12 15:43:57 +0000";
layers = (
{
layerId = m01;
shapes = (
{
closed = 1;
nodes = (
(40,305,l),
(460,305,l),
(460,375,l),
(40,375,l)
);
},
{
closed = 1;
nodes = (
(269,442,l),
(420,313,l),
(460,375,l),
(312,499,l)
);
},
{
closed = 1;
nodes = (
(460,305,l),
(421,367,l),
(270,238,l),
(312,181,l)
);
},
{
closed = 1;
nodes = (
(40,375,l),
(80,313,l),
(231,442,l),
(188,499,l)
);
},
{
closed = 1;
nodes = (
(230,238,l),
(79,367,l),
(40,305,l),
(188,181,l)
);
}
);
width = 500;
}
);
unicode = 8596;
},
{
glyphname = upDownArrow;
lastChange = "2021-06-12 15:44:14 +0000";
layers = (
{
layerId = m01;
shapes = (
{
closed = 1;
nodes = (
(285,130,l),
(285,550,l),
(215,550,l),
(215,130,l)
);
},
{
closed = 1;
nodes = (
(148,359,l),
(277,510,l),
(215,550,l),
(91,402,l)
);
},
{
closed = 1;
nodes = (
(285,550,l),
(223,511,l),
(352,360,l),
(409,402,l)
);
},
{
closed = 1;
nodes = (
(215,130,l),
(277,170,l),
(148,321,l),
(91,278,l)
);
},
{
closed = 1;
nodes = (
(352,320,l),
(223,169,l),
(285,130,l),
(409,278,l)
);
}
);
width = 500;
}
);
unicode = 8597;
},
{
glyphname = dottedCircle;
lastChange = "2021-06-13 03:40:55 +0000";
layers = (
{
layerId = m01;
shapes = (
{
closed = 1;
nodes = (
(495,249,o),
(460,382,o),
(357,441,cs),
(255,500,o),
(122,464,o),
(63,362,cs),
(3,258,o),
(40,128,o),
(142,69,cs),
(245,9,o),
(376,43,o),
(436,147,cs)
);
},
{
closed = 1;
nodes = (
(361,68,o),
(245,38,o),
(154,90,cs),
(65,142,o),
(32,258,o),
(85,350,cs),
(137,440,o),
(255,471,o),
(344,419,cs),
(435,367,o),
(466,250,o),
(414,160,cs)
);
},
{
closed = 1;
nodes = (
(132,97,l),
(328,436,l),
(312,445,l),
(116,106,l)
);
},
{
closed = 1;
nodes = (
(83,145,l),
(257,447,l),
(242,456,l),
(68,154,l)
);
},
{
closed = 1;
nodes = (
(60,220,l),
(183,432,l),
(167,441,l),
(45,229,l)
);
},
{
closed = 1;
nodes = (
(383,406,l),
(367,415,l),
(171,76,l),
(187,67,l)
);
},
{
closed = 1;
nodes = (
(427,356,l),
(411,365,l),
(237,64,l),
(253,55,l)
);
},
{
closed = 1;
nodes = (
(454,278,l),
(438,287,l),
(316,75,l),
(332,66,l)
);
}
);
width = 500;
}
);
unicode = 9676;
},
{
glyphname = lozenge;
lastChange = "2021-06-13 03:49:41 +0000";
layers = (
{
layerId = m01;
shapes = (
{
closed = 1;
nodes = (
(105,341,l),
(250,120,l),
(393,341,l),
(250,561,l)
);
},
{
closed = 1;
nodes = (
(355,340,l),
(250,174,l),
(142,340,l),
(250,504,l)
);
}
);
width = 500;
}
);
unicode = 9674;
},
